<?xml version="1.0" standalone="no"?><!DOCTYPE svg PUBLIC "-//W3C//DTD SVG 1.1//EN" "http://www.w3.org/Graphics/SVG/1.1/DTD/svg11.dtd"><svg t="1566119555738" class="icon" viewBox="0 0 1024 1024" version="1.1" xmlns="http://www.w3.org/2000/svg" p-id="2010" xmlns:xlink="http://www.w3.org/1999/xlink" width="400" height="400"><defs><style type="text/css"></style></defs><path d="M640 853.317818h-85.317818v128h-85.364364v-128H384v128H298.682182v-128h-30.301091a97.28 97.28 0 0 1-97.745455-97.698909v-30.254545H42.682182V640h128v-85.317818H42.682182v-85.364364h128V384H42.682182V298.682182h128v-30.301091a97.28 97.28 0 0 1 97.745454-97.745455h30.254546V42.682182H384v128h85.317818V42.682182h85.364364v128h85.317818V42.682182h85.317818v128h30.301091a97.28 97.28 0 0 1 97.745455 97.745454v30.254546h128V384h-128v85.317818h128v85.364364h-128v85.317818h128v85.317818h-128v30.301091a97.28 97.28 0 0 1-97.745455 97.745455h-30.254545v128H640v-128z m0-85.317818h128v-512h-512v512h384zM341.317818 341.317818h341.364364v341.364364H341.317818V341.317818z" p-id="2011" fill="#1296db"></path></svg>